<svg width="26" height="26" viewBox="0 0 26 26" fill="none" xmlns="http://www.w3.org/2000/svg">
<path d="M12.8818 0.909424C19.7854 0.909424 25.3818 6.50585 25.3818 13.4094C25.3818 16.7922 24.0353 19.8582 21.8525 22.1086L25.3818 25.9094H12.8818C5.97827 25.9094 0.381836 20.313 0.381836 13.4094C0.381903 6.50589 5.97831 0.909491 12.8818 0.909424ZM12.8818 2.90942C7.264 2.90949 2.67665 7.3214 2.39551 12.8694L2.38184 13.4094C2.38184 19.2084 7.08281 23.9094 12.8818 23.9094H20.7949L19.0957 22.0784L20.417 20.7161C22.2536 18.8225 23.3818 16.25 23.3818 13.4094C23.3818 7.6104 18.6808 2.90942 12.8818 2.90942ZM8.57812 11.8821C9.37014 11.8824 10.0126 12.566 10.0127 13.4094C10.0127 14.2529 9.37022 14.9375 8.57812 14.9377C7.78583 14.9377 7.14355 14.2531 7.14355 13.4094C7.14368 12.5659 7.78591 11.8821 8.57812 11.8821ZM12.8818 11.8821C13.6739 11.8823 14.3163 12.566 14.3164 13.4094C14.3164 14.2529 13.6739 14.9375 12.8818 14.9377C12.0896 14.9377 11.4473 14.253 11.4473 13.4094C11.4474 12.5659 12.0897 11.8822 12.8818 11.8821ZM17.1865 11.8821C17.9785 11.8824 18.621 12.5661 18.6211 13.4094C18.6211 14.2529 17.9786 14.9374 17.1865 14.9377C16.3942 14.9377 15.752 14.2531 15.752 13.4094C15.7521 12.5659 16.3943 11.8821 17.1865 11.8821Z" fill="black"/>
</svg>
