<svg width="26" height="26" viewBox="0 0 26 26" fill="none" xmlns="http://www.w3.org/2000/svg">
<path d="M13.2588 0.90918C20.1623 0.90918 25.7587 6.50573 25.7588 13.4092C25.7588 20.3127 20.1623 25.9092 13.2588 25.9092C9.2483 25.9092 5.68183 24.0185 3.39453 21.082L3.27734 21.0322C3.28625 21.0114 3.29619 20.9908 3.30566 20.9697C1.70839 18.8702 0.758789 16.2508 0.758789 13.4092C0.758921 6.50573 6.35531 0.90918 13.2588 0.90918ZM12.9463 18.0508C9.08726 18.0508 6.85775 19.5824 5.79688 20.7959C7.6999 22.7182 10.3401 23.9092 13.2588 23.9092C16.129 23.9092 18.7286 22.7561 20.624 20.8896C19.3598 19.6286 16.8552 18.0508 12.9463 18.0508ZM13.2588 2.90918C7.45988 2.90918 2.75892 7.6103 2.75879 13.4092C2.75879 15.5623 3.40785 17.5635 4.51953 19.2295C6.02653 17.6455 8.75439 16.0508 12.9463 16.0508C17.2807 16.0508 20.2515 17.7521 21.9141 19.3516C23.0765 17.6616 23.7588 15.6154 23.7588 13.4092C23.7587 7.6103 19.0577 2.90918 13.2588 2.90918ZM13.2588 5.39258C16.0201 5.39258 18.2587 7.63127 18.2588 10.3926C18.2588 13.154 16.0202 15.3926 13.2588 15.3926C10.4974 15.3926 8.25879 13.154 8.25879 10.3926C8.25892 7.63127 10.4974 5.39258 13.2588 5.39258ZM13.2588 7.39258C11.602 7.39258 10.2589 8.73584 10.2588 10.3926C10.2588 12.0494 11.6019 13.3926 13.2588 13.3926C14.9156 13.3926 16.2588 12.0494 16.2588 10.3926C16.2587 8.73584 14.9156 7.39258 13.2588 7.39258Z" fill="black"/>
</svg>
