<svg width="17" height="20" viewBox="0 0 17 20" fill="none" xmlns="http://www.w3.org/2000/svg">
<path d="M8.93018 0.595703C11.5224 0.726976 13.5843 2.87031 13.5845 5.49512V6.75H14.6382L14.8423 6.76074C15.8509 6.86301 16.6381 7.71447 16.6382 8.75V17.0713C16.6381 18.1757 15.7427 19.0713 14.6382 19.0713H2.71826C1.61377 19.0713 0.718394 18.1757 0.718262 17.0713V8.75C0.718385 7.71447 1.50558 6.86301 2.51416 6.76074L2.71826 6.75H3.77197V5.49512C3.7721 2.78572 5.96879 0.588867 8.67822 0.588867L8.93018 0.595703ZM2.71826 8.25C2.4422 8.25 2.21839 8.47397 2.21826 8.75V17.0713C2.21839 17.3473 2.4422 17.5713 2.71826 17.5713H14.6382C14.9142 17.5713 15.1381 17.3473 15.1382 17.0713V8.75C15.1381 8.47397 14.9142 8.25 14.6382 8.25H2.71826ZM8.67822 11.5986C9.40382 11.5986 9.99254 12.1865 9.99268 12.9121C9.99268 13.6378 9.40391 14.2266 8.67822 14.2266C7.95254 14.2266 7.36475 13.6378 7.36475 12.9121C7.36488 12.1865 7.95262 11.5986 8.67822 11.5986ZM8.67822 2.08887C6.79722 2.08887 5.2721 3.61415 5.27197 5.49512V6.72168H12.0845V5.49512C12.0843 3.61423 10.5591 2.089 8.67822 2.08887Z" fill="black"/>
</svg>
