<svg width="26" height="28" viewBox="0 0 26 28" fill="none" xmlns="http://www.w3.org/2000/svg">
<path d="M14.958 0.90918C16.037 0.90918 16.9584 1.67317 17.165 2.72754L17.4795 4.34277C18.2278 4.66862 18.9368 5.07328 19.5918 5.55371L21.1387 5.02148L21.1406 5.02051C22.1588 4.67213 23.2824 5.0931 23.8203 6.02637L25.7051 9.29297C26.241 10.2236 26.0476 11.409 25.2334 12.1172L23.9932 13.1943C24.04 13.587 24.0713 13.992 24.0713 14.4092C24.0713 14.826 24.0399 15.2306 23.9932 15.623L25.2334 16.7012C25.9962 17.3647 26.2142 18.4451 25.7969 19.3447L25.7051 19.5225L23.8203 22.792L23.8193 22.793C23.2801 23.7255 22.1578 24.1459 21.1387 23.7949L19.5908 23.2617C18.9363 23.7423 18.2284 24.1481 17.4795 24.4746L17.165 26.0898C16.9585 27.1444 16.0371 27.9092 14.958 27.9092H11.1836C10.1047 27.9089 9.18307 27.1452 8.97656 26.0908L8.66211 24.4756C7.91364 24.1496 7.20487 23.7443 6.5498 23.2637L5.00293 23.7969L5.00098 23.7979C3.98275 24.146 2.85901 23.7254 2.32129 22.792L0.4375 19.5254C-0.0981927 18.5948 0.0941213 17.4093 0.908203 16.7012L2.14746 15.623C2.10076 15.2307 2.07129 14.8259 2.07129 14.4092C2.0713 13.9921 2.10068 13.587 2.14746 13.1943L0.908203 12.1172C0.0942276 11.4089 -0.0993546 10.2235 0.436523 9.29297L2.32227 6.02637L2.32324 6.02441C2.86178 5.09554 3.98267 4.67237 5.00293 5.02344L6.5498 5.55566C7.20441 5.0749 7.9131 4.66933 8.66211 4.34277L8.97656 2.72852C9.18313 1.67421 10.1048 0.909412 11.1836 0.90918H14.958ZM11.1836 2.90918C11.0655 2.90941 10.963 2.99224 10.9395 3.1123L10.416 5.80176L9.89453 5.99902C8.96612 6.35012 8.11249 6.83839 7.36719 7.4502L6.93555 7.80469L4.35156 6.91504C4.23973 6.87678 4.11507 6.92179 4.05371 7.02734L2.16992 10.292C2.10876 10.3986 2.13303 10.5307 2.2207 10.6074L4.28906 12.4062L4.19922 12.9561C4.11967 13.445 4.07131 13.9259 4.07129 14.4092C4.07129 14.8925 4.11968 15.3734 4.19922 15.8623L4.28906 16.4121L2.2207 18.2109C2.13293 18.2876 2.10895 18.4198 2.16992 18.5264L4.05469 21.793C4.11439 21.8966 4.23952 21.9441 4.35352 21.9053L6.93555 21.0166L7.36719 21.3701C8.01836 21.9045 8.7538 22.3447 9.5498 22.6816L9.89453 22.8193L10.416 23.0166L10.9395 25.7061C10.963 25.8262 11.0655 25.909 11.1836 25.9092H14.958C15.0764 25.9092 15.1786 25.8264 15.2021 25.7061L15.7266 23.0166L16.2471 22.8193C17.1755 22.4682 18.0291 21.98 18.7744 21.3682L19.2061 21.0137L21.79 21.9033C21.8893 21.9375 21.9966 21.9068 22.0625 21.8281L22.0879 21.792L23.9717 18.5244L23.9912 18.4834C24.0264 18.3863 23.9984 18.2784 23.9209 18.2109L22.2734 16.7773L21.8525 16.4121L21.9424 15.8623C22.0219 15.3734 22.0713 14.8925 22.0713 14.4092C22.0713 13.9258 22.0219 13.445 21.9424 12.9561L21.8525 12.4062L22.2734 12.041L23.9209 10.6074C24.009 10.5307 24.033 10.3988 23.9717 10.292L22.0879 7.02539C22.0281 6.92186 21.902 6.87409 21.7881 6.91309L21.7871 6.91211L19.2061 7.80176L18.7744 7.44824C18.0303 6.83763 17.1761 6.35034 16.2471 5.99902L15.7266 5.80176L15.2021 3.1123L15.1904 3.06836C15.1533 2.97225 15.0614 2.90918 14.958 2.90918H11.1836ZM13.0713 8.40918C16.3846 8.40937 19.0712 11.0959 19.0713 14.4092C19.0713 17.7226 16.3847 20.409 13.0713 20.4092C9.75791 20.409 7.07129 17.7226 7.07129 14.4092C7.07142 11.0959 9.758 8.40937 13.0713 8.40918ZM13.0713 10.4092C10.8626 10.4094 9.07142 12.2004 9.07129 14.4092C9.07129 16.618 10.8625 18.409 13.0713 18.4092C15.2801 18.409 17.0713 16.618 17.0713 14.4092C17.0712 12.2004 15.28 10.4094 13.0713 10.4092Z" fill="black"/>
</svg>
